<svg xmlns="http://www.w3.org/2000/svg" xml:space="preserve" height="240" width="240" version="1.1" viewBox="0 0 240 240"><defs><clipPath clipPathUnits="userSpaceOnUse"><path d="m0 221.37h235.18v-221.37h-235.18v221.37z"/></clipPath></defs><g transform="matrix(1.25 0 0 -1.25 -29.034 291.32)"><g transform="translate(52.817,74.775)"><path d="m0 0h39v8h-30.723-8.277v-8z"/></g><g transform="translate(52.817,88.775)"><path d="m0 0h39v8h-30.723-8.277v-8z"/></g><g transform="translate(52.817,103.78)"><path d="m0 0h39v7h-30.723-8.277v-7z"/></g><g transform="translate(104.82,74.775)"><path d="m0 0v21h-7v-16.997-4.003h7z"/></g><g transform="translate(136.82,89.775)"><path d="m0 0v21h-8v-17.366-3.634h8z"/></g><g transform="translate(97.817,88.775)"><path d="m0 0h39v8h-31.133-7.867v-8z"/></g><g transform="translate(97.817,103.78)"><path d="m0 0h39v7h-31.133-7.867v-7z"/></g><g transform="translate(164.31,111.78)"><path d="m0 0h-9.813l-16.329-29.498-3.991-7.502h9.812l20.321 37z"/></g><g transform="translate(180.89,82.277)"><path d="m0 0-16.329 29.498h-9.813l20.321-37h9.813l-3.992 7.502z"/></g><g transform="translate(1.2116,6.775)"><g clip-path="url(#a)"><g transform="translate(197.39,63.765)"><path d="m0 0h-158.75v44.04h50.378c0.444-0.676 1.132-1.279 1.45-1.957 0.241-0.514 1.544-0.528 2.362-0.771-1.236 0.869-1.646 1.481-1.271 2.728h53.133c0.223-1.051-0.293-2.039-1.471-2.666 1.793-0.637 2.43 0.615 3.382 1.822 0.232 0.295 0.417 0.573 0.551 0.844h50.235v-44.04zm-50.584 46.79c-0.192 0.364-0.345 0.763-0.394 1.156-0.2 1.609-1.197 1.881-2.535 1.603-0.628-0.131-1.251-0.542-1.853-0.499-3.122 0.219-6.461 0.443-8.699 3.063-0.127 0.149-0.159 0.294-0.419 0.406 0.07-0.469 0.124-0.827 0.187-1.241-0.759 0.065-2.059 0.033-2.081-0.036 1.527-0.735 3.054-1.469 4.741-2.28-0.16-0.473-0.238-0.913-0.248-1.332l1.175 0.011c0.087 0.483 0.444 0.781 1.257 0.706 1.664-0.154 3.181-0.652 4.496-1.557h-49.004c1.22 0.94 2.803 1.347 4.425 1.67 1.027 0.205 1.631-0.763 1.631-0.763h1.086c0.194 0.563 0.397 1.153 0.613 1.779 0.843 0.417 2.304 1.141 3.764 1.865-0.038 0.086-0.076 0.172-0.114 0.259-0.567-0.067-1.134-0.134-1.823-0.216 0.113 0.482 0.196 0.837 0.338 1.443-0.569-0.378-0.993-0.574-1.308-0.882-2.749-2.677-6.072-2.974-9.597-2.28-1.722 0.339-2.31 0.004-2.683-1.761-0.082-0.385-0.242-0.786-0.466-1.114h-50.652-2.527v-2.75-44.04-2.75h2.527 158.75 2.527v2.75 44.04 2.75h-2.527-50.584z"/></g><g transform="translate(185.79,144.41)"><path d="m0 0c-0.844-2.227-1.479-4.258-2.37-6.17-1.3-2.788-2.886-5.444-4.163-8.242-1.654-3.624-2.83-7.376-2.391-11.48 0.148-1.389 0.756-1.923 2.07-2.108 3.415-0.483 6.663 0.236 9.323 2.207 3.147 2.333 6.025 5.075 8.779 7.875 2.402 2.443 4.47 5.214 6.686 7.84 0.107 0.228 0.214 0.456 0.321 0.683-7.019-1.601-12.893-5.486-18.735-9.519 2.792 6.245 3.608 12.416 0.48 18.914"/></g><g transform="translate(161.34,118.64)"><path d="m0 0c-3.16-2.172-6.423-5.643-9.688-6.643h8.18c1.245 2 1.794 4.748 1.508 6.643"/></g><g transform="translate(173.45,127.39)"><path d="m0 0c-3.056-3.737-6.218-7.124-9.251-10.879-1.207-1.496-2.254-3.51-3.094-4.51h9.1c4.393 5 6.846 11.219 5.291 18.866-0.854-1.377-1.346-2.621-2.046-3.477"/></g><g transform="translate(190.14,115.37)"><path d="m0 0c0.422 0.312 0.795 0.664 1.512 1.294-7.506-0.208-14.114-2.668-20.674-4.668h14.352c1.603 1 3.201 2.185 4.81 3.374"/></g><g transform="translate(196.14,142.48)"><path d="m0 0c1.254 7.711-0.412 14.844-3.615 17.1-0.695-3.432-1.442-6.978-2.124-10.537-0.494-2.583-1.075-5.167-1.304-7.778-0.279-3.191 0.221-6.332 1.405-9.385 4.447 0.858 8.101 2.778 11.019 6.017 4.453 4.942 6.415 11.244 9.289 17.078-5.963-2.792-10.215-7.515-14.67-12.495"/></g><g transform="translate(198.07,150.72)"><path d="m0 0c0.502-1.471 1.611-1.742 2.8-0.897 1.868 1.329 3.989 2.523 5.372 4.272 4.901 6.196 5.006 13.97 6.563 21.276-4.751-4.384-7.789-9.89-10.769-16.139 0.09 6.795-1.566 12.335-6.14 16.739-0.068-3.846-0.161-7.598-0.193-11.349-0.019-2.258-0.224-4.566 0.163-6.762 0.428-2.435 1.399-4.78 2.204-7.14"/></g><g transform="translate(203.07,164)"><path d="m0 0c7.156 11.836 4.368 23.739-1.542 35.535 0.315-12.037-1.441-24.136 1.542-35.535"/></g><g transform="translate(47.773,118.62)"><path d="m0 0c2.66-1.971 5.908-2.691 9.322-2.208 1.315 0.186 1.923 0.719 2.071 2.109 0.438 4.104-0.737 7.855-2.391 11.48-1.277 2.797-2.864 5.453-4.163 8.241-0.891 1.912-1.526 3.944-2.37 6.171-3.128-6.499-2.312-12.669 0.48-18.915-5.842 4.033-11.716 7.918-18.735 9.52 0.107-0.228 0.214-0.456 0.321-0.684 2.215-2.626 4.284-5.397 6.686-7.839 2.754-2.801 5.632-5.543 8.779-7.875"/></g><g transform="translate(84.382,112)"><path d="m0 0c-3.266 1-6.528 4.471-9.688 6.643-0.286-1.895 0.263-4.643 1.507-6.643h8.181z"/></g><g transform="translate(45.895,115.37)"><path d="m0 0c1.609-1.189 3.207-2.374 4.81-3.374h14.352c-6.56 2-13.168 4.46-20.674 4.668 0.717-0.63 1.09-0.982 1.512-1.294"/></g><g transform="translate(74.928,112)"><path d="m0 0c-0.84 1-1.887 2.969-3.095 4.464-3.032 3.756-6.194 7.161-9.25 10.899-0.7 0.855-1.192 2.158-2.046 3.535-1.555-7.647 0.897-13.898 5.291-18.898h9.1z"/></g><g transform="translate(45.53,131.88)"><path d="m0 0c1.184 3.053 1.683 6.194 1.404 9.385-0.228 2.611-0.809 5.195-1.304 7.778-0.681 3.559-1.428 7.105-2.123 10.537-3.203-2.256-4.869-9.389-3.615-17.1-4.455 4.98-8.708 9.703-14.671 12.495 2.875-5.834 4.836-12.136 9.289-17.078 2.918-3.239 6.573-5.159 11.02-6.017"/></g><g transform="translate(35.163,149.83)"><path d="m0 0c1.188-0.845 2.298-0.574 2.8 0.897 0.805 2.36 1.775 4.705 2.204 7.14 0.386 2.196 0.182 4.504 0.162 6.761-0.032 3.752-0.124 7.504-0.193 11.349-4.573-4.404-6.229-9.943-6.139-16.738-2.981 6.249-6.019 11.755-10.77 16.139 1.558-7.307 1.663-15.08 6.564-21.276 1.383-1.749 3.504-2.944 5.372-4.272"/></g><g transform="translate(34.503,199.54)"><path d="m0 0c-5.91-11.797-8.698-23.7-1.542-35.535 2.983 11.399 1.227 23.498 1.542 35.535"/></g><g transform="translate(127.81,136.03)"><path d="m0 0c0.708 1.229 1.991 4.546 2.201 3.821 0.211-0.725 0.01-7.036 0-8.079-0.01-1.042 1.882-3.888 2.322-3.021 0.441 0.868 1.791 3.151 1.791 3.151s1.402-2.137 2.087-3.182c0.669 1.149 1.39 1.95 1.39 1.95s0.841-0.192 1.753-1.071c0.338 1.39 1.086 4.467 1.086 4.467l2.872-3.003 0.485 4.047s2.336-1.343 4.01-2.306c-0.454 1.701-0.774 2.897-1.088 4.072 1.258-0.377 2.302-0.689 3.764-1.127-0.695 1.688-1.172 2.847-1.736 4.219 1.206-0.17 2.169-0.307 3.336-0.471-0.531 1.114-0.963 2.023-1.422 2.987 1.295 0.15 2.375 0.276 3.797 0.441-1.097 1.03-1.906 1.791-2.905 2.729 1.79 0.216 3.203 0.353 5.092 0.58-1.298 1.044-2.185 1.762-3.475 2.762h5.427c-0.863 1-1.48 1.718-2.251 2.595 1.553 0.222 4.386 0.952 4.424 1.111-1.516 1.026-3.033 2.06-4.743 3.217 2.248 0.298 6.35 1.154 6.37 1.31-1.484 0.81-2.967 1.622-4.579 2.502 2.533 0.526 7.081 1.945 7.081 1.945l-4.023 1.84c2.224 0.983 6.086 3.066 6.044 3.235-1.518 0.356-3.037 0.712-4.701 1.102 1.276 1.195 3.411 3.652 3.319 3.796-4.275-0.424-8.544-0.93-12.828-1.241-2.828-0.206-4.371-1.71-5.201-4.258-0.933-2.861-1.846-5.732-2.9-8.549-1.58-4.226-4.312-7.406-8.616-9.107-1.035-0.409-2.005-1.008-2.956-1.599-3.422-2.128-6.034-5.399-5.227-10.865"/></g><g transform="translate(69.034,166.16)"><path d="m0 0 6.127-2.643-4.012-2.345s4.574-0.936 7.054-1.443c-1.699-0.922-4.529-2.981-4.529-2.981l6.288-0.816-4.601-3.707s2.704-0.338 4.246-0.542c-0.735-0.893-1.373-1.684-2.227-2.684h5.307c-1.183-1-2.107-1.721-3.381-2.749 1.921-0.196 3.36-0.353 5.293-0.55-1.075-1.02-1.828-1.739-2.947-2.801 1.568-0.114 2.627-0.061 3.918-0.155-0.548-1.022-0.991-1.745-1.543-2.745h3.075c-0.484-2-0.9-2.556-1.44-4.008 1.353 0.459 2.388 0.744 3.543 1.136-0.233-1.371-0.418-2.492-0.661-3.917 1.493 0.778 2.575 1.325 3.878 2.004 0.118-1.48 0.203-2.556 0.322-4.042 1.127 1.022 1.93 1.747 2.89 2.618 0.365-1.48 0.695-2.819 1.077-4.369 0.701 0.843 1.158 1.391 1.759 2.114 0.443-1.086 0.766-1.878 1.204-2.954 0.789 1.204 1.415 2.159 2.156 3.289 0.691-1.14 1.269-2.093 1.96-3.233 0.622 1.083 2.234 8.578 2.41 10.993 0.835-1.523 1.642-2.995 2.456-4.479 0.808 5.031-1.979 10.33-7.206 12.534-6.074 2.561-9.581 6.988-11.253 13.189-0.582 2.157-1.419 4.249-2.194 6.35-0.672 1.82-1.947 2.877-3.957 3.028-1.351 0.1-2.686 0.399-4.037 0.524-3.18 0.294-9.548 0.801-9.548 0.801l3.45-3.702-4.877-1.715z"/></g><g transform="translate(111.45,142.41)"><path d="m0 0c-1.059 0.292-2.118 0.583-3.247 0.894 1.457-4.28 1.857-8.445 0.95-10.613-0.584 0.743-1.919 2.492-1.977 2.035s1.866-7.502 2.793-11.227c0.268 0.32 0.684 0.817 1.401 1.673-0.134-2.159-0.241-3.866-0.368-5.907 1.036 0.546 1.72 0.907 2.289 1.207 0.194-1.922 0.381-3.783 0.611-6.066 0.605 0.79 0.877 1.144 1.299 1.696 0.268-1.405 0.714-3.749 0.714-3.749s1.455 2.375 2.086 3.792c0.689-1.482 1.24-2.669 1.791-3.856 0.125 0.03 0.737 2.481 0.958 3.937 0.49-0.61 0.805-1.003 1.407-1.752 0.214 2.311 0.387 4.174 0.558 6.016 0.697-0.351 1.38-0.695 2.297-1.157-0.116 2.049-0.561 5.784-0.333 5.874 0.229 0.09 1.141-1.992 1.318-1.644 0.178 0.347 2.663 9.186 2.974 11.079 0.312 1.893-0.29 0.044-0.435 0.066-0.444-0.663-1.51-2.257-1.51-2.257s-0.257 7.447 0.727 10.859c-1.157-0.325-2.168-0.608-3.179-0.892-0.036 0.121 6.364 4.193 9.711 6.174-3.619 1.066-6.983-2.653-10.071-2.021 0.227-0.3 1.535-1.068 2.031-1.725-1.745 0.085-5.243 1.138-5.243 1.138l-0.431-2.941-2.734 2.467-3.011-3.255s0.231 2.77 0.091 3.45c-1.425-0.071-4.108-0.456-4.108-0.456s1.012 0.958 1.268 1.293c-1.318-0.583-6.775 3.21-10.318 2.032 3.3-1.953 9.732-6.046 9.691-6.164"/></g><g transform="translate(114.02,161.16)"><path d="m0 0c-0.193-0.215-1.376-0.964-1.307-1.215s3.316-2.859 3.001-3.428c-0.314-0.57-2.225-0.266-3.154-0.38 1.113-3.943-3.018-7.137-3.018-7.137h2.032l-1.155-1.896s2.386 0.838 3.819 1.344c-0.751-1.07-1.701-2.425-1.701-2.425l3.321 1.058-0.286-3.559 2.257 3.372 2.333-2.638s0.068 1.957 0.068 2.727c1.072-0.41 2.078-0.795 3.506-1.341-0.781 1.147-1.248 1.832-1.883 2.763 1.428-0.375 2.475-0.651 3.802-1.001-0.328 0.65-0.499 0.988-0.742 1.469 0.714-0.061 1.275-0.108 2.22-0.188-2.021 1.525-4.816 4.82-4.125 5.07s0.602-0.776 0.959-0.265c0.357 0.512-1.247 3.742-1.349 5.583-0.062 1.118-0.052 1.978-0.978 2.676-2.395 1.808-8.77 1.535-10.962-0.868 1.143 0.224 2.945 0.578 3.198 0.627 0.252 0.05 0.337-0.133 0.144-0.348"/></g><g transform="translate(116.87,111)"><path d="m0 0h2.182c-0.586 2-1.156 2.949-1.156 2.949s-0.499-0.949-1.026-2.949"/></g><g transform="translate(122.29,112.02)"><path d="m0 0c-0.39 0.321-0.672 0.362-1.086 0.704-0.163-0.523-0.32-0.722-0.477-1.722h3.59c-0.639 3-1.187 4.642-1.187 4.642s-0.577-2.717-0.84-3.624"/></g><g transform="translate(114.81,112.69)"><path d="m0 0c-0.426-0.32-0.717-0.443-1.1-0.73-0.264 0.914-1.028 3.847-1.028 3.847s-0.502-1.804-1.096-4.804h3.69c-0.158 1-0.31 1.188-0.466 1.687"/></g><g transform="translate(192.48,188.61)"><path d="m0 0-25.826-15.506c8.174-1.751 23.618 7.537 25.826 15.506"/></g><g transform="translate(69.241,173.18)"><path d="m0 0c-8.458 5.078-17.17 10.309-25.688 15.423 1.989-7.902 18.837-17.912 25.688-15.423"/></g><g transform="translate(69.701,168.5)"><path d="m0 0c-8.011 3.781-16.173 7.633-24.425 11.528 2.345-6.125 15.84-14.967 24.425-11.528"/></g><g transform="translate(190.55,179.95)"><path d="m0 0c-8.114-3.833-16.242-7.673-24.219-11.442 7.312-2.684 22.563 4.361 24.219 11.442"/></g><g transform="translate(44.901,173.78)"><path d="m0 0c6.082-8.519 18.189-13.209 26.958-10.384-9.78 1.809-18.109 6.156-26.958 10.384"/></g><g transform="translate(190.5,173.29)"><path d="m0 0c-8.38-3.875-16.684-8.045-26.071-9.869 7.334-3.172 20.44 1.738 26.071 9.869"/></g><g transform="translate(73.084,158.58)"><path d="m0 0c-7.959 2.123-15.75 4.202-23.715 6.326 3.349-4.844 16.582-9.752 23.715-6.326"/></g><g transform="translate(186.59,164.89)"><path d="m0 0c-7.952-2.121-15.763-4.205-23.739-6.333 6.587-2.875 19.738 0.642 23.739 6.333"/></g><g transform="translate(76.007,154.45)"><path d="m0 0c-7.942 0.512-15.167 3.34-23.049 2.993 5.258-4.163 17.254-6.887 23.049-2.993"/></g><g transform="translate(160.41,154.17)"><path d="m0 0c8.06-3.293 15.37-1.016 22.432 3.079-7.692 0.478-14.932-2.213-22.432-3.079"/></g><g transform="translate(112.49,118.82)"><path d="m0 0c-0.714-0.124-1.428-0.248-2.35-0.408 0.08 1.512 0.148 2.799 0.224 4.227-0.805-0.494-1.38-0.847-2.285-1.403 0.88 2.439-0.019 4.907-0.653 7.022 0.257-3.914 0.147-4.636-0.631-6.566-0.797-1.979-2.122-3.699-4.434-4.415 1.212 0.076 2.424 0.152 3.773 0.237-0.254-0.476-0.482-0.902-0.765-1.433 0.708 0.047 1.281 0.085 2.162 0.143-0.521-0.906-0.908-1.58-1.565-2.724 1.64 0.684 2.804 1.17 4.125 1.72-0.125-0.718-0.237-1.357-0.376-2.156 1.888 1.438 2.689 3.173 2.775 5.756"/></g><g transform="translate(133.72,117.32)"><path d="m0 0c-3.624 1.327-6.061 6.921-5.183 10.934-0.993-2.444-1.361-4.592-0.726-6.961-0.839 0.504-1.447 0.869-2.199 1.32 0.092-1.519 0.169-2.784 0.258-4.251-0.959 0.193-1.671 0.337-2.516 0.507 0.425-2.259 0.809-4.347 2.916-5.865-0.113 0.882-0.194 1.518-0.279 2.182 1.326-0.542 2.492-1.1 4.081-1.75-0.669 1.141-1.071 1.561-1.55 2.561h2.057c-0.223 1-0.421 0.962-0.688 1.517 0.8-0.112 1.377-0.187 1.96-0.226 0.62-0.041 1.246 0.032 1.869 0.032"/></g><g transform="translate(77.333,150.53)"><path d="m0 0c-8.868 0.92-17.818 0.949-20.271 0.064 6.931-2.835 16.947-3.379 20.271-0.064"/></g><g transform="translate(178.89,151.17)"><path d="m0 0c-6.734-0.186-13.467-0.373-20.465-0.566 4.154-3.5 14.599-2.681 20.475 0.077-0.003 0.163-0.007 0.326-0.01 0.489"/></g><g transform="translate(80.482,144.05)"><path d="m0 0c-5.342-0.434-10.464-1.39-15.411-3.76 4.826-1.75 12.802 0.217 15.411 3.76"/></g><g transform="translate(173.33,145.59)"><path d="m0 0c-5.286 2.035-10.837 0.607-16.483 1.843 3.27-3.852 11.5-4.027 16.483-1.843"/></g><g transform="translate(78.99,147.38)"><path d="m0 0c-5.472-1.159-11.031 0.243-16.446-1.857 5.898-2.23 13.772-1.648 16.446 1.857"/></g><g transform="translate(170.91,140.3)"><path d="m0 0c-4.894 2.414-10.129 2.765-15.394 3.742 2.347-3.687 11.039-5.213 15.394-3.742"/></g><g transform="translate(83.185,141.06)"><path d="m0 0c-5.245-0.825-9.684-2.268-13.42-5.424 5.065-0.161 9.665 0.848 13.42 5.424"/></g><g transform="translate(150.93,137.43)"><path d="m0 0c2.549-4.709 8.502-5.024 13.368-6.276-1.077 0.828-1.517 1.102-1.814 1.255-3.669 1.882-11.451 5.219-11.554 5.021"/></g><g transform="translate(166.45,135.66)"><path d="m0 0c-3.978 3.153-8.557 3.938-12.986 5.335 1.484-3.528 7.608-6.092 12.986-5.335"/></g><g transform="translate(72.802,130.99)"><path d="m0 0c4.006 0.745 7.927 1.699 11.018 4.579 0.473 0.441 0.592 1.263 1.032 2.269-4.425-2.274-9.222-2.819-12.05-6.848"/></g><g transform="translate(158.48,127.58)"><path d="m0 0c-2.387 4.435-6.536 5.528-10.316 7.161 1.852-4.462 5.829-5.806 10.316-7.161"/></g><g transform="translate(77.402,127.63)"><path d="m0 0c3.477 0.721 6.235 2.062 8.662 4.055 0.785 0.644 1.677 1.341 1.132 2.904-3.808-1.508-7.281-3.217-9.794-6.959"/></g><g transform="translate(145.13,132.37)"><path d="m0 0c-0.021-3.239 3.676-6.434 8.198-7.225-1.338 3.964-5.14 4.996-8.198 7.225"/></g><g transform="translate(90.648,130.39)"><path d="m0 0c0.298 0.485 0.304 1.15 0.533 2.099-4.564-2.592-8.328-4.842-8.472-7.564 0.532 0.147 1.065 0.193 1.49 0.431 2.408 1.344 4.932 2.57 6.449 5.034"/></g><g transform="translate(111.1,157.49)"><path d="m0 0c-0.16-0.12-3.845-0.387-3.021-0.453 0.824-0.065 6.225-0.41 6.333 0.032s-3.255 3.348-5.56 3.463c-0.892 0.044-2.173-0.293-2.62-0.922-0.402-0.567 0.094-1.771 0.194-2.693 1.231 1.559 5.324 1.06 4.674 0.573"/></g><g transform="translate(94.899,130.45)"><path d="m0 0c-2.286-2.119-4.617-4.28-6.948-6.441 4.243 0.567 7.689 4.151 6.948 6.441"/></g><g transform="translate(143.52,126.08)"><path d="m0 0c1.824-1.374 4.464-2.094 4.535-2.019-2.354 2.127-4.708 4.255-6.981 6.308 0.12-1.41 0.893-3.119 2.446-4.289"/></g><g transform="translate(142.64,122.2)"><path d="m0 0c-1.671 2.665-3.204 5.111-4.87 7.769-0.802-3.457 1.249-6.782 4.87-7.769"/></g><g transform="translate(98.191,129.88)"><path d="m0 0c-1.596-2.553-3.139-5.019-4.883-7.81 3.886 1.353 5.815 4.604 4.883 7.81"/></g><g transform="translate(130.48,128.99)"><path d="m0 0c-1.972-2.43-1.135-6.645 1.95-8.827-0.678 3.067-1.304 5.903-1.95 8.827"/></g><g transform="translate(105.5,128.83)"><path d="m0 0c-0.606-2.744-1.224-5.542-1.842-8.34 3.264 2.628 3.903 6.615 1.842 8.34"/></g><g transform="translate(137.4,121.54)"><path d="m0 0c-1.102 2.583-2.203 5.167-3.401 7.976-1.288-2.897 0.103-6.35 3.401-7.976"/></g><g transform="translate(101.61,125.09)"><path d="m0 0c0.772 1.473 0.949 3.215 0.334 4.28-1.138-2.689-2.221-5.248-3.305-7.808 0.089-0.042 1.939 1.56 2.971 3.528"/></g></g></g></g></svg>